<svg id="Capa_1" enable-background="new 0 0 497 497" height="512" viewBox="0 0 497 497" width="512" xmlns="http://www.w3.org/2000/svg"><g><g fill="#ececec"><path d="m459.011 4.291 21.815 79.984-79.985 21.815-16.266-38.53z"/><path d="m186.901 78.506-90.703 24.738-52.885 39.223-5.285 62.577 90.703-24.739 74.437-63.269z"/><path d="m368.308 29.029-90.704 24.738-74.436 63.269 16.267 38.531 90.703-24.738 74.437-63.269z"/></g><path d="m267.514 271.742-229.486 26.42v121.945c0 40.1 32.503 72.603 72.613 72.603h313.756c40.1 0 72.603-32.503 72.603-72.603v-121.945z" fill="#77728d"/><path d="m38.028 298.162v121.945c0 40.1 32.503 72.603 72.613 72.603h30c-40.11 0-72.613-32.503-72.613-72.603v-121.945z" fill="#5c576e"/><path d="m497 215.255v82.907h-82.906l-5.555-41.454z" fill="#ececec"/><path d="m214.951 215.255h-94.017l-61.341 23.926-21.565 58.981h94.016l88.462-41.454z" fill="#ececec"/><path d="m402.984 215.255h-94.017l-88.461 41.453 5.555 41.454h94.016l88.462-41.454z" fill="#ececec"/><path d="m497 215.255-82.906 82.907h-94.017l82.907-82.907z" fill="#5c576e"/><path d="m308.967 215.255-82.906 82.907h-94.017l82.907-82.907z" fill="#5c576e"/><path d="m120.934 215.255-82.906 82.907v-82.907z" fill="#5c576e"/><path d="m68.028 268.162h-19.031l-10.969 30h30z" fill="#dededc"/><path d="m68.028 215.255h-30v82.907l30-30z" fill="#423e4f"/><path d="m459.011 4.291-58.17 101.799-90.703 24.739 58.17-101.8z" fill="#5c576e"/><path d="m277.604 53.767-58.169 101.8-90.704 24.738 58.17-101.799z" fill="#5c576e"/><path d="m103.649 187.146c-6.907-25.293-28.068-44.749-54.284-49.167l-6.052 4.488-5.286 62.577z" fill="#dededc"/><path d="m58.227 113.6c-23.204 6.329-36.884 30.269-30.555 53.473l10.356 37.971 58.17-101.8z" fill="#5c576e"/><path d="m71.762 146.007c-9.951-5.708-21.463-8.991-33.734-8.991-2.686 0-5.331.174-7.937.478-4.102 8.952-5.213 19.336-2.419 29.578l10.356 37.971z" fill="#423e4f"/><circle cx="38.028" cy="205.044" fill="#ececec" r="38.028"/><g><g><path d="m204.671 376.797h-.001c-4.142-.001-7.5-3.359-7.499-7.501 0-2.835-1.103-5.5-3.107-7.505-6.689-6.69-18.118-1.905-18.119 7.501 0 4.142-3.358 7.499-7.5 7.499 0 0 0 0-.001 0-4.142 0-7.5-3.359-7.499-7.501.001-6.842 2.667-13.273 7.505-18.11 10.002-9.998 26.214-10.006 36.223.006 4.837 4.839 7.5 11.271 7.499 18.113-.002 4.141-3.359 7.498-7.501 7.498z" fill="#423e4f"/></g><g><path d="m366.583 376.826h-.001c-4.142-.001-7.5-3.359-7.499-7.501 0-2.834-1.103-5.5-3.107-7.505-6.689-6.69-18.118-1.905-18.119 7.501 0 4.142-3.358 7.499-7.5 7.499 0 0 0 0-.001 0-4.142 0-7.5-3.359-7.499-7.501.001-6.842 2.667-13.273 7.505-18.11 10.001-9.997 26.213-10.007 36.223.007 4.837 4.838 7.5 11.271 7.499 18.112-.002 4.141-3.359 7.498-7.501 7.498z" fill="#423e4f"/></g><g><path d="m267.513 406.732c-.002 0-.004 0-.006 0-9.531-.002-18.594-4.132-24.866-11.331-2.721-3.123-2.395-7.861.729-10.582 3.123-2.721 7.86-2.396 10.582.729 3.422 3.928 8.364 6.182 13.558 6.183h.003c5.193 0 10.134-2.252 13.557-6.179 2.723-3.123 7.46-3.447 10.582-.725s3.446 7.46.725 10.582c-6.273 7.196-15.335 11.323-24.864 11.323z" fill="#423e4f"/></g></g></g></svg>